<svg width="249" height="82" viewBox="0 0 249 82" fill="none" xmlns="http://www.w3.org/2000/svg">
<g clip-path="url(#clip0_85_3)">
<path d="M52.85 51.41C50.499 51.448 48.1659 50.995 46 50.08C44.0697 49.2588 42.4097 47.9107 41.21 46.19C40.0044 44.3555 39.3933 42.1941 39.46 40C39.3804 37.8122 39.9966 35.6555 41.22 33.84C42.4557 32.1442 44.1583 30.8447 46.12 30.1C48.4033 29.223 50.8345 28.7952 53.28 28.84H63.07V26.84C63.0964 26.0794 62.9701 25.3212 62.6988 24.6102C62.4274 23.8991 62.0164 23.2496 61.49 22.7C60.43 21.5667 58.75 21 56.45 21C54.6474 20.867 52.8613 21.4207 51.45 22.55C50.3209 23.6181 49.5639 25.02 49.29 26.55L40.9 23.76C41.4804 21.9252 42.4223 20.2251 43.67 18.76C45.0635 17.1521 46.8133 15.8919 48.78 15.08C51.26 14.0833 53.9183 13.6068 56.59 13.68C61.29 13.68 65.02 14.86 67.75 17.21C70.48 19.56 71.86 23 71.86 27.43V40.75C71.86 42.19 72.5267 42.91 73.86 42.91H76.74V50.4H70.74C69.1731 50.4648 67.629 50.0076 66.35 49.1C65.8006 48.7111 65.3554 48.193 65.0537 47.5913C64.752 46.9896 64.603 46.3229 64.62 45.65V45.58H63.22C62.8899 46.3882 62.4527 47.1483 61.92 47.84C61.0808 48.9147 59.9929 49.7692 58.75 50.33C56.8905 51.1322 54.8731 51.5015 52.85 51.41ZM54.43 44.06C56.6991 44.1602 58.9229 43.4034 60.66 41.94C61.4557 41.236 62.0848 40.3638 62.5017 39.3866C62.9185 38.4093 63.1126 37.3516 63.07 36.29V35.57H53.93C52.5143 35.4818 51.1089 35.8613 49.93 36.65C49.4638 36.9949 49.0889 37.4485 48.8379 37.9714C48.5869 38.4942 48.4675 39.0705 48.49 39.65C48.4716 40.2632 48.5988 40.8721 48.8613 41.4266C49.1238 41.9811 49.514 42.4655 50 42.84C51.2907 43.7476 52.8566 44.1788 54.43 44.06Z" fill="url(#paint0_linear_85_3)"/>
<path d="M0 50.4V0H9.5V20H10.8L27.14 0H39.31L18.31 24.84L40 50.4H27.5L10.8 30H9.5V50.4H0Z" fill="url(#paint1_linear_85_3)"/>
<path d="M79.77 50.4V14.69H88.7V18.58H90C90.7239 17.2707 91.7925 16.1848 93.09 15.44C94.8288 14.4832 96.7972 14.0231 98.78 14.11C100.92 14.004 103.045 14.5179 104.9 15.59C106.4 16.5338 107.62 17.8635 108.43 19.44H109.73C110.543 17.8984 111.729 16.5851 113.18 15.62C115.099 14.5055 117.304 13.9803 119.52 14.11C121.605 14.083 123.665 14.5671 125.52 15.52C127.345 16.4781 128.848 17.9529 129.84 19.76C130.993 21.9688 131.552 24.4399 131.46 26.93V50.4H122.4V27.58C122.458 26.7781 122.354 25.9727 122.095 25.2117C121.835 24.4507 121.426 23.7496 120.89 23.15C120.315 22.6335 119.644 22.2367 118.914 21.9826C118.184 21.7285 117.411 21.6222 116.64 21.67C115.743 21.6235 114.847 21.779 114.018 22.1252C113.188 22.4713 112.448 22.9993 111.85 23.67C110.626 25.2892 110.027 27.2948 110.16 29.32V50.4H101.09V27.58C101.151 26.777 101.048 25.97 100.787 25.2083C100.525 24.4466 100.111 23.7462 99.57 23.15C98.9977 22.6329 98.3278 22.2355 97.5996 21.9814C96.8714 21.7272 96.0997 21.6213 95.33 21.67C94.4328 21.6235 93.5366 21.779 92.7075 22.1252C91.8785 22.4713 91.1377 22.9993 90.54 23.67C89.3164 25.2892 88.7165 27.2948 88.85 29.32V50.4H79.77Z" fill="url(#paint2_linear_85_3)"/>
<path d="M137.66 50.4V14.69H146.59V18.58H147.89C148.619 17.2681 149.695 16.1819 151 15.44C152.739 14.4832 154.707 14.0231 156.69 14.11C158.83 14.0068 160.954 14.5205 162.81 15.59C164.31 16.5338 165.53 17.8635 166.34 19.44H167.63C168.45 17.9002 169.639 16.5877 171.09 15.62C173.009 14.5055 175.214 13.9803 177.43 14.11C179.515 14.0843 181.575 14.5683 183.43 15.52C185.255 16.4781 186.758 17.9529 187.75 19.76C188.903 21.9688 189.462 24.4399 189.37 26.93V50.4H180.3V27.58C180.361 26.777 180.258 25.97 179.997 25.2083C179.735 24.4466 179.321 23.7462 178.78 23.15C178.208 22.6329 177.538 22.2355 176.81 21.9814C176.081 21.7272 175.31 21.6213 174.54 21.67C173.642 21.6191 172.745 21.7726 171.915 22.1191C171.085 22.4655 170.345 22.9958 169.75 23.67C168.526 25.2892 167.927 27.2948 168.06 29.32V50.4H159V27.58C159.063 26.7777 158.962 25.9709 158.702 25.2091C158.443 24.4474 158.03 23.7467 157.49 23.15C156.916 22.6326 156.244 22.2351 155.514 21.981C154.785 21.7268 154.011 21.6211 153.24 21.67C152.344 21.6199 151.448 21.7738 150.62 22.1203C149.792 22.4667 149.053 22.9966 148.46 23.67C147.233 25.2879 146.629 27.2936 146.76 29.32V50.4H137.66Z" fill="url(#paint3_linear_85_3)"/>
<path d="M220.16 33.39C220.239 35.9777 219.431 38.5147 217.87 40.58C217.073 41.5058 216.075 42.2368 214.951 42.717C213.828 43.1971 212.61 43.4137 211.39 43.35C210.362 43.42 209.33 43.2786 208.358 42.9347C207.386 42.5907 206.495 42.0514 205.74 41.35C204.407 40.0167 203.74 38.0167 203.74 35.35V14.69H194.67V36C194.619 38.6941 195.212 41.3615 196.4 43.78C197.486 45.9686 199.171 47.8033 201.26 49.07C203.475 50.3859 206.014 51.0545 208.59 51C210.396 51.0569 212.198 50.7894 213.91 50.21C215.146 49.7858 216.277 49.1041 217.23 48.21C217.965 47.5013 218.573 46.6728 219.03 45.76H220.32V54.76C220.32 56.2 219.653 56.92 218.32 56.92H198.87V64.8H221.33C222.389 64.8494 223.447 64.6805 224.438 64.3038C225.429 63.927 226.331 63.3505 227.09 62.61C227.826 61.8268 228.396 60.9034 228.767 59.8949C229.139 58.8863 229.303 57.8134 229.25 56.74V33.39H220.16Z" fill="url(#paint4_linear_85_3)"/>
<path d="M248.45 17C248.451 18.8564 248.087 20.6949 247.377 22.4104C246.668 24.1259 245.627 25.6847 244.315 26.9979C243.003 28.311 241.445 29.3527 239.73 30.0635C238.015 30.7742 236.176 31.14 234.32 31.14H220.18V17C220.177 16.2293 220.241 15.4598 220.37 14.7C220.936 11.1884 222.805 8.01938 225.605 5.82552C228.405 3.63166 231.929 2.57439 235.474 2.86476C239.019 3.15512 242.324 4.77177 244.729 7.39197C247.134 10.0122 248.463 13.4432 248.45 17Z" fill="url(#paint5_linear_85_3)"/>
<path d="M64.5887 74.0108C63.3689 74.0108 62.278 73.7531 61.3159 73.2377C60.371 72.7051 59.6237 71.9492 59.0739 70.9699C58.5242 69.9907 58.2493 68.8396 58.2493 67.5167V67.259C58.2493 65.919 58.5242 64.7679 59.0739 63.8059C59.6237 62.8266 60.371 62.0793 61.3159 61.5639C62.278 61.0313 63.3689 60.765 64.5887 60.765C65.7913 60.765 66.8049 60.9969 67.6296 61.4608C68.4714 61.9075 69.1242 62.5002 69.5881 63.2389C70.0691 63.9605 70.3698 64.725 70.49 65.5324L68.9696 65.8417C68.8837 65.1717 68.669 64.5618 68.3254 64.012C67.9818 63.4451 67.5007 62.9984 66.8822 62.672C66.2638 62.3284 65.4992 62.1566 64.5887 62.1566C63.6782 62.1566 62.8621 62.3713 62.1406 62.8008C61.419 63.2131 60.8435 63.8059 60.414 64.579C60.0016 65.3349 59.7955 66.2368 59.7955 67.2848V67.491C59.7955 68.5389 60.0016 69.4495 60.414 70.2226C60.8435 70.9785 61.419 71.5712 62.1406 72.0007C62.8621 72.413 63.6782 72.6192 64.5887 72.6192C65.9631 72.6192 67.0111 72.267 67.7326 71.5626C68.4542 70.8411 68.9009 69.9649 69.0727 68.9341L70.5931 69.2433C70.4385 70.0508 70.1121 70.8239 69.6139 71.5626C69.1328 72.2842 68.4714 72.8769 67.6296 73.3408C66.8049 73.7874 65.7913 74.0108 64.5887 74.0108ZM74.3952 73.65V55.611H75.9414V63.3162H76.2506C76.4568 62.9039 76.7403 62.5174 77.101 62.1566C77.479 61.7786 77.96 61.478 78.5442 61.2546C79.1455 61.0141 79.8928 60.8938 80.7862 60.8938C81.6967 60.8938 82.5299 61.0828 83.2858 61.4608C84.0418 61.8387 84.6431 62.4057 85.0897 63.1616C85.5536 63.9175 85.7855 64.871 85.7855 66.0221V73.65H84.2393V66.1252C84.2393 64.7508 83.8957 63.7715 83.2085 63.1874C82.5213 62.5861 81.6022 62.2854 80.4511 62.2854C79.1626 62.2854 78.0889 62.7063 77.2299 63.5482C76.3709 64.39 75.9414 65.6699 75.9414 67.3879V73.65H74.3952ZM94.014 74.0108C93.1378 74.0108 92.339 73.8647 91.6174 73.5727C90.913 73.2634 90.3547 72.8168 89.9424 72.2326C89.53 71.6485 89.3239 70.9441 89.3239 70.1195C89.3239 69.2777 89.53 68.5819 89.9424 68.0321C90.3547 67.4824 90.913 67.0701 91.6174 66.7952C92.3218 66.5203 93.1035 66.3829 93.9625 66.3829H98.5495V65.3778C98.5495 64.3642 98.2575 63.5739 97.6734 63.007C97.0892 62.44 96.2388 62.1566 95.1221 62.1566C94.0226 62.1566 93.1464 62.4315 92.4936 62.9812C91.8579 63.5138 91.4284 64.2354 91.2051 65.1459L89.7104 64.7078C89.9166 63.9691 90.243 63.3076 90.6897 62.7235C91.1364 62.1222 91.7291 61.6498 92.4678 61.3062C93.2066 60.9454 94.0913 60.765 95.1221 60.765C96.7027 60.765 97.9225 61.1773 98.7815 62.002C99.6576 62.8266 100.096 63.9777 100.096 65.4551V71.5369C100.096 72.0523 100.336 72.31 100.817 72.31H102.028V73.65H100.379C99.8466 73.65 99.4257 73.4954 99.1165 73.1861C98.8072 72.8597 98.6526 72.4216 98.6526 71.8719V71.6915H98.3949C98.1716 72.0694 97.8795 72.4388 97.5187 72.7996C97.1751 73.1604 96.7199 73.4524 96.1529 73.6758C95.586 73.8991 94.873 74.0108 94.014 74.0108ZM94.1171 72.6192C95.44 72.6192 96.5051 72.2241 97.3126 71.4338C98.1372 70.6263 98.5495 69.4924 98.5495 68.0321V67.7229H93.9882C93.0949 67.7229 92.3476 67.9205 91.7463 68.3156C91.1621 68.6936 90.8701 69.2863 90.8701 70.0937C90.8701 70.9012 91.1707 71.5283 91.772 71.9749C92.3905 72.4044 93.1722 72.6192 94.1171 72.6192ZM108.727 73.65C108.057 73.65 107.55 73.4782 107.207 73.1346C106.88 72.791 106.717 72.31 106.717 71.6915V62.5174H102.697V61.1258H106.717V56.4356H108.263V61.1258H112.644V62.5174H108.263V71.4853C108.263 72.0007 108.521 72.2584 109.037 72.2584H111.974V73.65H108.727ZM122.795 74.0108C121.421 74.0108 120.347 73.7445 119.574 73.2119C118.818 72.6621 118.26 72.0437 117.899 71.3565H117.59V73.65H116.095V55.611H117.641V63.3162H117.951C118.174 62.8867 118.483 62.483 118.878 62.105C119.291 61.7099 119.815 61.3921 120.45 61.1515C121.103 60.8938 121.885 60.765 122.795 60.765C123.929 60.765 124.952 61.0313 125.862 61.5639C126.773 62.0793 127.494 62.8266 128.027 63.8059C128.559 64.7679 128.826 65.9104 128.826 67.2333V67.5425C128.826 68.8654 128.551 70.0164 128.001 70.9957C127.468 71.9578 126.747 72.7051 125.836 73.2377C124.926 73.7531 123.912 74.0108 122.795 74.0108ZM122.435 72.6192C123.861 72.6192 125.012 72.1639 125.888 71.2534C126.781 70.3428 127.228 69.0887 127.228 67.491V67.2848C127.228 65.6871 126.781 64.4329 125.888 63.5224C125.012 62.6118 123.861 62.1566 122.435 62.1566C121.026 62.1566 119.875 62.6118 118.982 63.5224C118.088 64.4329 117.641 65.6871 117.641 67.2848V67.491C117.641 69.0887 118.088 70.3428 118.982 71.2534C119.875 72.1639 121.026 72.6192 122.435 72.6192ZM138.476 74.0108C137.205 74.0108 136.088 73.7445 135.126 73.2119C134.181 72.6621 133.442 71.9062 132.91 70.9441C132.394 69.9649 132.137 68.831 132.137 67.5425V67.2333C132.137 65.9448 132.394 64.8195 132.91 63.8574C133.442 62.8781 134.181 62.1222 135.126 61.5896C136.088 61.0399 137.205 60.765 138.476 60.765C139.747 60.765 140.856 61.0399 141.8 61.5896C142.763 62.1222 143.501 62.8781 144.017 63.8574C144.549 64.8195 144.816 65.9448 144.816 67.2333V67.5425C144.816 68.831 144.549 69.9649 144.017 70.9441C143.501 71.9062 142.763 72.6621 141.8 73.2119C140.856 73.7445 139.747 74.0108 138.476 74.0108ZM138.476 72.6192C139.954 72.6192 141.122 72.1553 141.981 71.2276C142.84 70.2827 143.269 69.0372 143.269 67.491V67.2848C143.269 65.7386 142.84 64.5016 141.981 63.5739C141.122 62.629 139.954 62.1566 138.476 62.1566C137.016 62.1566 135.848 62.629 134.971 63.5739C134.112 64.5016 133.683 65.7386 133.683 67.2848V67.491C133.683 69.0372 134.112 70.2827 134.971 71.2276C135.848 72.1553 137.016 72.6192 138.476 72.6192ZM146.901 73.65L152.132 67.2848L147.081 61.1258H149.014L153.111 66.254H153.421L157.518 61.1258H159.451L154.4 67.2848L159.631 73.65H157.673L153.421 68.3156H153.111L148.859 73.65H146.901Z" fill="#060A44"/>
</g>
<defs>
<linearGradient id="paint0_linear_85_3" x1="0.00137768" y1="32.4043" x2="229.259" y2="32.4043" gradientUnits="userSpaceOnUse">
<stop offset="0.035" stop-color="#060A44"/>
<stop offset="1" stop-color="#2973FF"/>
</linearGradient>
<linearGradient id="paint1_linear_85_3" x1="0.00137768" y1="32.4043" x2="229.259" y2="32.4043" gradientUnits="userSpaceOnUse">
<stop offset="0.035" stop-color="#060A44"/>
<stop offset="1" stop-color="#2973FF"/>
</linearGradient>
<linearGradient id="paint2_linear_85_3" x1="0.00137768" y1="32.4043" x2="229.259" y2="32.4043" gradientUnits="userSpaceOnUse">
<stop offset="0.035" stop-color="#060A44"/>
<stop offset="1" stop-color="#2973FF"/>
</linearGradient>
<linearGradient id="paint3_linear_85_3" x1="0.00137768" y1="32.4043" x2="229.259" y2="32.4043" gradientUnits="userSpaceOnUse">
<stop offset="0.035" stop-color="#060A44"/>
<stop offset="1" stop-color="#2973FF"/>
</linearGradient>
<linearGradient id="paint4_linear_85_3" x1="0.00137768" y1="32.4043" x2="229.259" y2="32.4043" gradientUnits="userSpaceOnUse">
<stop offset="0.035" stop-color="#060A44"/>
<stop offset="1" stop-color="#2973FF"/>
</linearGradient>
<linearGradient id="paint5_linear_85_3" x1="252" y1="3" x2="223" y2="29" gradientUnits="userSpaceOnUse">
<stop stop-color="#9CF1FF"/>
<stop offset="0.4771" stop-color="#58E6FF"/>
<stop offset="1" stop-color="#06BCDD"/>
</linearGradient>
<clipPath id="clip0_85_3">
<rect width="248.45" height="81.48" fill="white"/>
</clipPath>
</defs>
</svg>
