<svg id="Layer_1" data-name="Layer 1" xmlns="http://www.w3.org/2000/svg" viewBox="0 0 100 100"><defs><style>.cls-1{fill:#060a44;}.cls-2{fill:#0b21c0;}</style></defs><path class="cls-1" d="M47.85,49.33c-.11,4.65-1.28,8.29-3.49,11s-5.63,4.22-9.88,4.22c-3.72,0-6.6-1-8.61-3.08s-3-5.12-3-9.22V20.82H9V53.31a25.86,25.86,0,0,0,2.64,11.86,19.58,19.58,0,0,0,7.41,8.06,21,21,0,0,0,11.14,2.91,23,23,0,0,0,8.11-1.2,14,14,0,0,0,5.06-3.08,13.64,13.64,0,0,0,2.75-3.73h2V81.85q0,3.29-3.06,3.29H15.39V97.21H49.63a11.79,11.79,0,0,0,8.79-3.34,12.23,12.23,0,0,0,3.29-8.94V49.33Z"/><path class="cls-2" d="M91,24.33A21.54,21.54,0,0,1,69.44,45.88H47.88V24.33a20.36,20.36,0,0,1,.29-3.51A21.55,21.55,0,0,1,91,24.33Z"/></svg>