<svg width="100" height="100" viewBox="0 0 100 100" fill="none" xmlns="http://www.w3.org/2000/svg">
<path d="M47.85 49.33C47.74 53.98 46.57 57.62 44.36 60.33C42.15 63.04 38.73 64.55 34.48 64.55C30.76 64.55 27.88 63.55 25.87 61.47C23.86 59.39 22.87 56.35 22.87 52.25V20.82H9V53.31C8.9256 57.4169 9.83058 61.4824 11.64 65.17C13.2933 68.5066 15.8638 71.3026 19.05 73.23C22.4197 75.2189 26.2781 76.2268 30.19 76.14C32.9434 76.2289 35.6903 75.8225 38.3 74.94C40.187 74.286 41.9123 73.2358 43.36 71.86C44.4827 70.7826 45.4128 69.5211 46.11 68.13H48.11V81.85C48.11 84.0433 47.09 85.14 45.05 85.14H15.39V97.21H49.63C51.2459 97.2861 52.8602 97.0288 54.3724 96.4542C55.8846 95.8796 57.2624 95 58.42 93.87C59.5386 92.6757 60.4061 91.2691 60.9712 89.7335C61.5363 88.1979 61.7876 86.5645 61.71 84.93V49.33H47.85Z" fill="#060A44"/>
<path d="M91 24.33C91.0013 27.1612 90.4445 29.9649 89.3613 32.5807C88.2782 35.1965 86.69 37.5731 84.6875 39.5746C82.6851 41.5761 80.3078 43.1632 77.6915 44.2452C75.0751 45.3271 72.2712 45.8826 69.44 45.88H47.88V24.33C47.8751 23.1538 47.9721 21.9794 48.17 20.82C49.0264 15.458 51.8754 10.617 56.1472 7.26506C60.419 3.9131 65.7987 2.2973 71.2104 2.74081C76.6222 3.18431 81.6671 5.65443 85.3362 9.65715C89.0052 13.6599 91.028 18.9002 91 24.33Z" fill="url(#paint0_linear_85_268)"/>
<defs>
<linearGradient id="paint0_linear_85_268" x1="96.4149" y1="2.9471" x2="52.1712" y2="42.6038" gradientUnits="userSpaceOnUse">
<stop stop-color="#9CF1FF"/>
<stop offset="0.4771" stop-color="#58E6FF"/>
<stop offset="1" stop-color="#06BCDD"/>
</linearGradient>
</defs>
</svg>
