<svg xmlns="http://www.w3.org/2000/svg" viewBox="0 0 248.45 81.48"><defs><style>.cls-1,.cls-3{fill:#060a44;}.cls-2{fill:#0b21c0;}.cls-3{font-size:25.77px;font-family:SpaceGrotesk-Light, Space Grotesk;font-weight:300;}.cls-4{letter-spacing:0.2em;}.cls-5{letter-spacing:0.17em;}.cls-6{letter-spacing:0.17em;}</style></defs><g id="Layer_2" data-name="Layer 2"><g id="Layer_1-2" data-name="Layer 1"><path class="cls-1" d="M0,50.4V0H9.5V20h1.3L27.14,0H39.31l-21,24.84L40,50.4H27.5L10.8,30H9.5V50.4Z"/><path class="cls-2" d="M52.85,51.41A16.9,16.9,0,0,1,46,50.08a11.17,11.17,0,0,1-4.79-3.89A10.68,10.68,0,0,1,39.46,40a10.35,10.35,0,0,1,1.76-6.16,10.81,10.81,0,0,1,4.9-3.74,19,19,0,0,1,7.16-1.26h9.79v-2a5.7,5.7,0,0,0-1.58-4.14Q59.9,21,56.45,21a7.16,7.16,0,0,0-5,1.55,7.27,7.27,0,0,0-2.16,4L40.9,23.76a14.42,14.42,0,0,1,2.77-5,13.66,13.66,0,0,1,5.11-3.68,19.51,19.51,0,0,1,7.81-1.4c4.7,0,8.43,1.18,11.16,3.53S71.86,23,71.86,27.43V40.75q0,2.16,2,2.16h2.88V50.4h-6a7.08,7.08,0,0,1-4.39-1.3,4.1,4.1,0,0,1-1.73-3.45v-.07H63.22a9.74,9.74,0,0,1-1.3,2.26,8.41,8.41,0,0,1-3.17,2.49A13.37,13.37,0,0,1,52.85,51.41Zm1.58-7.35a9.05,9.05,0,0,0,6.23-2.12,7.16,7.16,0,0,0,2.41-5.65v-.72H53.93a6.47,6.47,0,0,0-4,1.08,3.56,3.56,0,0,0-1.44,3A3.88,3.88,0,0,0,50,42.84,6.81,6.81,0,0,0,54.43,44.06Z"/><path class="cls-1" d="M79.77,50.4V14.69H88.7v3.89H90a8.19,8.19,0,0,1,3.09-3.14,10.82,10.82,0,0,1,5.69-1.33,11.13,11.13,0,0,1,6.12,1.48,9.89,9.89,0,0,1,3.53,3.85h1.3a10.43,10.43,0,0,1,3.45-3.82,11.31,11.31,0,0,1,6.34-1.51,12.77,12.77,0,0,1,6,1.41,10.49,10.49,0,0,1,4.32,4.24,14.35,14.35,0,0,1,1.62,7.17V50.4H122.4V27.58a6,6,0,0,0-1.51-4.43,5.82,5.82,0,0,0-4.25-1.48,6,6,0,0,0-4.79,2,8.45,8.45,0,0,0-1.69,5.65V50.4h-9.07V27.58a5.92,5.92,0,0,0-1.52-4.43,5.78,5.78,0,0,0-4.24-1.48,6,6,0,0,0-4.79,2,8.45,8.45,0,0,0-1.69,5.65V50.4Z"/><path class="cls-1" d="M137.66,50.4V14.69h8.93v3.89h1.3A8.19,8.19,0,0,1,151,15.44a10.82,10.82,0,0,1,5.69-1.33,11.18,11.18,0,0,1,6.12,1.48,9.89,9.89,0,0,1,3.53,3.85h1.29a10.55,10.55,0,0,1,3.46-3.82,11.31,11.31,0,0,1,6.34-1.51,12.8,12.8,0,0,1,6,1.41,10.49,10.49,0,0,1,4.32,4.24,14.35,14.35,0,0,1,1.62,7.17V50.4h-9.07V27.58a5.92,5.92,0,0,0-1.52-4.43,5.78,5.78,0,0,0-4.24-1.48,5.94,5.94,0,0,0-4.79,2,8.45,8.45,0,0,0-1.69,5.65V50.4H159V27.58a5.91,5.91,0,0,0-1.51-4.43,5.8,5.8,0,0,0-4.25-1.48,5.93,5.93,0,0,0-4.78,2,8.45,8.45,0,0,0-1.7,5.65V50.4Z"/><path class="cls-1" d="M220.16,33.39a11.35,11.35,0,0,1-2.29,7.19,8,8,0,0,1-6.48,2.77,7.55,7.55,0,0,1-5.65-2q-2-2-2-6V14.69h-9.07V36a16.91,16.91,0,0,0,1.73,7.78,12.88,12.88,0,0,0,4.86,5.29A13.78,13.78,0,0,0,208.59,51a15.11,15.11,0,0,0,5.32-.79,9.23,9.23,0,0,0,3.32-2,9,9,0,0,0,1.8-2.45h1.29v9q0,2.16-2,2.16H198.87V64.8h22.46a7.73,7.73,0,0,0,5.76-2.19,8,8,0,0,0,2.16-5.87V33.39Z"/><path class="cls-2" d="M248.45,17a14.13,14.13,0,0,1-14.13,14.14H220.18V17a13.47,13.47,0,0,1,.19-2.3A14.13,14.13,0,0,1,248.45,17Z"/><text class="cls-3" transform="translate(56.6 74.42)"><tspan class="cls-4">ch</tspan><tspan class="cls-5" x="41.62" y="0">a</tspan><tspan class="cls-4" x="60.79" y="0">tb</tspan><tspan class="cls-6" x="99.66" y="0">o</tspan><tspan x="119.94" y="0">x</tspan></text></g></g></svg>